Coordinates
version=1
nRows=27
nColumns=12
inDegrees=yes

Units are S.I. units (second, meters, Newtons, ...)
Angles are in degrees

endheader
time	SC_y	SC_z	SC_x	AC_y	AC_z	AC_x	GH_y	GH_z	GH_yy	EL_x	PS_y
       0.0              -20.67          1.562          63.09          42.12         -15.84         -4.944          60.92          28.32         -87.12          32.86          50.96
   0.03167              -20.67          1.564          63.08          42.12         -15.84         -4.942          60.91          28.32         -87.08          32.87          50.96
   0.06333              -20.68          1.565          63.07          42.12         -15.84          -4.94          60.89          28.33         -87.04          32.87          50.97
     0.095              -20.68          1.567          63.06          42.13         -15.84         -4.938          60.87          28.34          -87.0          32.87          50.97
    0.1267              -20.68          1.569          63.05          42.13         -15.84         -4.936          60.85          28.35         -86.96          32.87          50.98
    0.1583              -20.68          1.571          63.04          42.13         -15.84         -4.933          60.82          28.36         -86.91          32.87          50.98
      0.19              -20.69          1.573          63.03          42.13         -15.84         -4.931           60.8          28.37         -86.86          32.87          50.99
    0.2217              -20.69          1.576          63.02          42.14         -15.84         -4.928          60.78          28.38         -86.81          32.87          50.99
    0.2533               -20.7          1.578           63.0          42.14         -15.85         -4.925          60.75           28.4         -86.75          32.88           51.0
     0.285               -20.7          1.581          62.99          42.14         -15.85         -4.922          60.72          28.41         -86.69          32.88           51.0
    0.3167               -20.7          1.584          62.97          42.15         -15.85         -4.919          60.69          28.42         -86.62          32.88          51.01
    0.3483              -20.71          1.587          62.96          42.15         -15.85         -4.915          60.65          28.44         -86.55          32.88          51.02
      0.38              -20.71           1.59          62.94          42.16         -15.85         -4.911          60.62          28.46         -86.48          32.88          51.03
    0.4117              -20.72          1.594          62.92          42.16         -15.85         -4.907          60.58          28.47         -86.39          32.89          51.03
    0.4433              -20.73          1.598           62.9          42.17         -15.85         -4.902          60.54          28.49         -86.31          32.89          51.04
     0.475              -20.73          1.602          62.88          42.17         -15.85         -4.898          60.49          28.51         -86.21          32.89          51.05
    0.5067              -20.74          1.607          62.85          42.18         -15.85         -4.892          60.44          28.54          -86.1           32.9          51.06
    0.5383              -20.75          1.612          62.83          42.18         -15.86         -4.886          60.38          28.56         -85.99           32.9          51.08
      0.57              -20.76          1.618           62.8          42.19         -15.86          -4.88          60.32          28.59         -85.86           32.9          51.09
    0.6016              -20.77          1.624          62.77           42.2         -15.86         -4.873          60.26          28.62         -85.73          32.91           51.1
    0.6333              -20.78           1.63          62.73          42.21         -15.86         -4.865          60.19          28.65         -85.58          32.91          51.12
     0.665              -20.79          1.638          62.69          42.22         -15.86         -4.857          60.11          28.69         -85.41          32.92          51.14
    0.6966               -20.8          1.646          62.65          42.23         -15.87         -4.848          60.02          28.73         -85.23          32.92          51.16
    0.7283              -20.81          1.655          62.61          42.24         -15.87         -4.837          59.92          28.77         -85.03          32.93          51.18
      0.76              -20.83          1.665          62.55          42.25         -15.87         -4.826          59.82          28.82          -84.8          32.94           51.2
    0.7916              -20.85          1.676           62.5          42.27         -15.88         -4.813           59.7          28.88         -84.55          32.95          51.23
    0.8233              -20.86          1.688          62.43          42.28         -15.88         -4.799          59.56          28.94         -84.27          32.96          51.26
